<svg height="512" viewBox="0 0 58 51" width="512" xmlns="http://www.w3.org/2000/svg"><g id="007---Singing" fill="none" transform="translate(-1)"><path id="Shape" d="m12.81 20.57c-5.31-1.07-5.15-1-6.06-1.4l7.81-17.32c1 .46.89.46 5 3.62z" fill="#bdc3c7"/><path id="Shape" d="m14.56 1.85c-8.26 18.31-7.73 17.31-7.83 17.31-3.1710886-1.344304-5.36618422-4.2996745-5.73693133-7.7239266-.3707471-3.42425214 1.14093377-6.7809589 3.95081167-8.77282796 2.8098779-1.99186905 6.47777076-2.30686366 9.58611966-.82324544z" fill="#2c2f38"/><path id="Shape" d="m16.19 20.14 5.33-11.86c.1 0-.51-.16 35.84 18.2 1.4223178.7277869 2.0246989 2.4425944 1.37 3.9l-1.34 3c-.6610159 1.4588874-2.351463 2.1412293-3.84 1.55-37.63-14.93-37.36-14.69-37.36-14.79z" fill="#393f4a"/><path id="Shape" d="m21.53 8.29-5.34 11.85c-.4528735 1.0079197-1.6370803 1.4578735-2.645 1.005s-1.4578735-1.6370803-1.005-2.645l5.34-11.86c.3215825-.67955354.9893394-1.12856251 1.74-1.17.6936374-.0300887 1.3532541.30170859 1.7426001.87655454s.452711 1.3104875.1673999 1.94344546z" fill="#56595e"/><path id="Shape" d="m32 11.39v12c.0051175.9140915-.3548498 1.7924117-1 2.44-.07.1.06 0-2.64.93l-3.36-.43c0-16.33 0-14.95 0-15.27.0589488-1.25042956.780516-2.37442531 1.8928942-2.94858891 1.1123782-.57416361 2.4465706-.51126596 3.5.165 1.0534293.67626596 1.6660546 1.86315931 1.6071058 3.11358891z" fill="#fdd7ad"/><path id="Shape" d="m39 13.39v12c-.0002977 1.4370754-.8814515 2.7270528-2.22 3.25-.1 0 0 .06-4.46-2.16-.41-.2-.32.69-.32-13.09 0-1.9329966 1.5670034-3.5 3.5-3.5s3.5 1.5670034 3.5 3.5z" fill="#fdd7ad"/><path id="Shape" d="m46 15.39v12c0 1.9329966-1.5670034 3.5-3.5 3.5s-3.5-1.5670034-3.5-3.5v-12c0-1.9329966 1.5670034-3.5 3.5-3.5s3.5 1.5670034 3.5 3.5z" fill="#fdd7ad"/><path id="Shape" d="m53 17.39v12c.0051175.9140915-.3548498 1.7924117-1 2.44-.9940664 1.0145754-2.5027316 1.327761-3.8184919.7926851-1.3157604-.5350759-2.1776622-1.812292-2.1815081-3.2326851v-12c0-1.9329966 1.5670034-3.5 3.5-3.5s3.5 1.5670034 3.5 3.5z" fill="#fdd7ad"/><g fill="#f9c795"><path id="Shape" d="m32 11.39v12c.0051175.9140915-.3548498 1.7924117-1 2.44-.07.1-.15.1-1 .38v-18c1.2238534.58592418 2.0019646 1.8231211 2 3.18z"/><path id="Shape" d="m39 13.39v12c.0001538 1.3488719-.7791922 2.5763418-2 3.15v-18.31c1.2190183.5809204 1.9966911 1.8096433 2 3.16z"/><path id="Shape" d="m46 15.39v12c.0090342 1.3539204-.7724782 2.58871-2 3.16v-18.32c1.2240864.5751914 2.0040379 1.8075148 2 3.16z"/><path id="Shape" d="m53 17.39v12c-.0008794 1.351063-.7793035 2.5809732-2 3.16v-18.32c1.2240864.5751914 2.0040379 1.8075148 2 3.16z"/><path id="Shape" d="m51 32.55v3.57c-.0000375 2.1906144-1.5577799 4.0716618-3.71 4.48-.1847442.1862606-.2888954.4376601-.29.7v8.59c0 .5522847-.4477153 1-1 1h-16c-.5522847 0-1-.4477153-1-1 0-10.7 0-9.85-.08-9.93-3.89-2.42-7.4-8.13-9.23-11.49-.8417426-1.5757106-.7217564-3.4916196.31-4.95 5.56-7.92 4.94-7.06 5.28-7.54.3925024-.5677035 1.0499734-.8929196 1.7393838-.860381.6894104.0325385 1.313328.4182331 1.6506162 1.020381.7886375 1.8144115.6850798 3.8929623-.28 5.62-.66 1.48-1.14 1.69-.94 2.41.1054963.3976255.4136988.7096329.81.82 2.9450953.9720956 5.8020796 2.193172 8.54 3.65 1.3306875-.5293436 2.2029376-1.8178949 2.2-3.25-.0546917.8701147-.0346181 1.7433177.06 2.61.3315919 1.7702529 1.9525005 2.9998652 3.7466243 2.8421685 1.7941238-.1576968 3.1756795-1.6512145 3.1933757-3.4521685 0 1.74-.18 2.89.65 4 .9784326 1.3881038 2.8103118 1.8766049 4.35 1.16z"/></g><path id="Shape" d="m40.93 33.9c-.0464445.3572656-.27996.6626148-.6125833.8010254-.3326233.1384107-.7138212.088855-1-.13-.2861788-.2188549-.4338612-.5737598-.3874167-.9310254.2803634-1.959226-.591334-3.9049792-2.24-5h.06c.6337788-.2499005 1.1822661-.6768874 1.58-1.23 1.962307 1.5446628 2.95307 4.0177594 2.6 6.49z" fill="#cf976a"/><path id="Shape" d="m31.41 42.75c-.8291323-.0266249-1.646197-.2063113-2.41-.53v-2.22c.7509725.433891 1.5939122.6840317 2.46.73.5578076.0138072.9988071.4771924.9849999 1.035-.0138071.5578076-.4771923.9988071-1.0349999.985z" fill="#cf976a"/></g></svg>